<?xml version="1.0" encoding="utf-8"?>
<!-- Generator: Adobe Illustrator 24.0.1, SVG Export Plug-In . SVG Version: 6.00 Build 0)  -->
<svg version="1.1" id="Layer_1" xmlns="http://www.w3.org/2000/svg" xmlns:xlink="http://www.w3.org/1999/xlink" x="0px" y="0px"
	 viewBox="0 0 1080 1080" style="enable-background:new 0 0 1080 1080;" xml:space="preserve">
<g>
	<path d="M155.69,547.62c-0.73,0-1.09,0.36-1.09,1.09v134.91h9.12l-10.94,17.5l-12.4-17.5h9.84v-35.37
		c-3.16,1.95-6.08,3.41-8.75,4.38c-2.68,0.97-5.78,1.7-9.3,2.19c-3.53,0.48-7.24,0.12-11.12-1.09c-7.54-1.7-13.25-6.2-17.14-13.49
		c-1.22-1.94-2.19-4.01-2.92-6.2c-0.73-2.19-1.34-4.38-1.82-6.56c-1.22-5.59-1.82-10.81-1.82-15.68v-72.92
		c-2.68,1.22-5.83,1.4-9.48,0.55c-3.65-0.85-6.99-2.31-10.03-4.38c-3.04-2.06-5.59-4.74-7.66-8.02c-2.07-3.28-2.86-6.98-2.37-11.12
		c2.43,1.22,5.34,1.95,8.75,2.19c3.4,0.24,6.62-0.18,9.66-1.28c3.04-1.09,5.65-2.85,7.84-5.29c2.19-2.43,3.28-5.71,3.28-9.84
		c-0.25-10.69-0.31-22.06-0.18-34.09c0.12-12.03,0.18-23.39,0.18-34.09c0-1.21,0-2.31,0-3.28c0-0.97-0.13-1.94-0.36-2.92
		c-0.73-3.4-2.19-6.2-4.38-8.39c-3.89-3.65-8.15-5.95-12.76-6.93h-1.09c-0.24-0.24-0.61-0.36-1.09-0.36c0-0.24,0.12-0.36,0.36-0.36
		c4.86-1.7,9.84-3.4,14.95-5.1c5.1-1.7,10.21-3.28,15.31-4.74c1.7-0.48,3.28-0.85,4.74-1.09c1.46-0.24,3.04-0.36,4.74-0.36
		c4.61,0,8.51,1.09,11.67,3.28c3.89,2.19,6.44,5.96,7.66,11.3c0.24,1.22,0.36,3.04,0.36,5.47v115.58v6.93v0.36
		c0,0.25,0.24,0.36,0.73,0.36c0.48,0,0.97-0.06,1.46-0.18c0.48-0.12,0.97-0.18,1.46-0.18c1.46-0.24,2.92-0.55,4.38-0.91
		c1.46-0.36,2.79-0.79,4.01-1.28c0.48-0.24,0.73-0.6,0.73-1.09v-0.36v-40.47l-10.94-11.3l10.94-11.3v-16.04l-10.94-11.3l10.94-11.3
		v-41.2c0-0.73-0.25-1.21-0.73-1.46c-6.56-3.16-13.62-5.47-21.15-6.93c-6.56-1.21-13.25-1.58-20.05-1.09
		c-8.27,0.49-15.8,1.7-22.61,3.65c-9,2.68-17.02,6.81-24.06,12.4c-9.97,8.51-16.77,19.21-20.42,32.09
		c-1.7,6.08-2.55,12.76-2.55,20.05c0,10.21,1.33,18.17,4.01,23.88c2.67,5.71,5.59,10.15,8.75,13.31c3.16,3.16,5.95,5.53,8.39,7.11
		c2.43,1.58,3.4,3.34,2.92,5.29c-1.46,3.89-4.56,6.75-9.3,8.57c-4.74,1.82-9.97,2.19-15.68,1.09c-5.71-1.09-11.25-3.89-16.59-8.39
		c-5.35-4.5-9.24-11-11.67-19.51c-1.7-6.07-2.55-12.82-2.55-20.24c0-7.41,1.09-14.82,3.28-22.24c2.19-7.41,5.53-14.7,10.03-21.88
		c4.5-7.17,10.27-13.55,17.32-19.14c10.69-8.51,21.27-14.22,31.72-17.14c10.45-2.92,19.81-4.86,28.08-5.83
		c10.94-1.21,21.2-1.33,30.81-0.36c9.6,0.97,18.23,2.31,25.89,4.01c7.66,1.7,14.09,3.53,19.32,5.47c5.22,1.95,8.81,3.41,10.76,4.38
		c9.72,4.14,17.99,9.36,24.79,15.68c7.78,6.56,14.09,14.83,18.96,24.79c4.61,10.21,7.17,21.03,7.66,32.45v0.73v7.29v0.73
		c0,1.22-0.06,2.31-0.18,3.28c-0.13,0.97-0.31,2.07-0.55,3.28c-0.97,7.54-3.16,14.58-6.56,21.15c-4.87,9.24-11.18,17.02-18.96,23.34
		c-3.89,3.16-7.96,5.9-12.21,8.2c-4.26,2.31-8.69,4.44-13.31,6.38c-4.62,1.7-9.24,3.16-13.85,4.38
		C165.29,546.28,160.55,547.13,155.69,547.62z M150.22,549.07v-0.73c0-0.24-0.25-0.36-0.73-0.36c-1.95,0-3.83,0-5.65,0
		c-1.82,0-3.71-0.12-5.65-0.36c-0.49,0-0.73,0.36-0.73,1.09c0,0.73,0,3.77,0,9.12c0,5.35,0.06,11.25,0.18,17.68
		c0.12,6.44,0.18,12.64,0.18,18.59c0,5.96,0,9.91,0,11.85c0,1.95,0,3.95,0,6.02c0,2.07,0.24,4.07,0.73,6.02
		c0.48,1.95,0.91,3.77,1.28,5.47c0.36,1.7,0.91,3.41,1.64,5.1c0.97,1.95,2.01,3.83,3.1,5.65c1.09,1.82,2.49,3.46,4.19,4.92
		l1.46,0.73V549.07z M155.69,398.12c-0.25-0.24-0.61-0.36-1.09-0.36v40.11l10.94,10.94l-10.94,10.94v16.77l10.94,10.94l-10.94,11.3
		v39.74c0.48,0,0.85-0.12,1.09-0.36c15.55-7.29,26.49-19.2,32.82-35.73c1.7-4.13,2.85-8.32,3.46-12.58
		c0.6-4.25,1.15-8.69,1.64-13.31c0.48-6.8,0.12-13.49-1.09-20.05c-0.49-3.16-1.04-6.14-1.64-8.93c-0.61-2.79-1.4-5.65-2.37-8.57
		C182.19,421.22,171.25,407.6,155.69,398.12z"/>
	<path d="M306.28,628.92c2.92,5.59,6.2,9.61,9.84,12.03c4.13,2.68,8.87,4.01,14.22,4.01c-3.16,1.22-6.81,2.43-10.94,3.65
		c-4.14,1.22-8.15,2.37-12.03,3.46c-3.89,1.09-7.28,2.01-10.17,2.74c-2.89,0.73-4.59,1.09-5.06,1.09c-1.21,0.24-2.23,0.42-3.07,0.55
		c-0.84,0.12-1.87,0.06-3.08-0.18c-5.55-1.22-10.07-3.4-13.56-6.56c-3.5-3.16-6.33-6.93-8.5-11.3c-2.17-4.38-3.67-9.12-4.52-14.22
		s-1.26-10.08-1.26-14.95V421.09c0-2.67,0-5.22,0-7.66c0-2.43-0.61-4.74-1.82-6.93c-1.7-3.4-4.56-6.32-8.57-8.75
		c-4.01-2.43-7.96-3.77-11.85-4.01c3.4-0.97,7.23-2.19,11.49-3.65c4.25-1.46,8.31-2.73,12.18-3.83c3.87-1.09,8.45-2.49,13.76-4.19
		c3.61-0.97,7.71-1.09,12.29-0.36c4.34,0.73,8.07,2.68,11.21,5.83c2.89,3.41,4.58,7.9,5.06,13.49v203.09
		C301.91,615.07,303.37,623.34,306.28,628.92z"/>
	<path d="M456.87,604.13c0,10.94,1.46,19.14,4.38,24.61c2.92,5.47,6.2,9.42,9.84,11.85c4.38,2.68,9.24,4.01,14.58,4.01
		c-3.16,1.22-6.81,2.43-10.94,3.65c-4.14,1.22-8.15,2.37-12.03,3.46c-3.89,1.09-7.29,2.01-10.21,2.73c-2.92,0.73-4.62,1.09-5.1,1.09
		c-1.22,0-2.31,0.06-3.28,0.18c-0.97,0.12-1.95,0.06-2.92-0.18c-5.1-1.22-10.03-2.97-14.77-5.29c-4.74-2.31-8.57-5.29-11.49-8.93
		c-7.78,2.68-14.71,4.99-20.78,6.93c-5.1,1.7-9.66,3.22-13.67,4.56s-5.65,1.76-4.92,1.28c-1.22,0.24-2.31,0.48-3.28,0.73
		c-0.97,0.24-2.07,0.48-3.28,0.73c-3.65,0.24-7.66,0-12.03-0.73c-7.78-2.19-14.46-6.32-20.05-12.4c-2.43-2.67-4.5-5.65-6.2-8.93
		c-1.7-3.28-2.8-6.62-3.28-10.03c-0.49-2.43-0.67-4.8-0.55-7.11c0.12-2.31,0.18-4.68,0.18-7.11v-43.39l64.9-21.88v-54.69
		c-6.32-2.67-13.37-3.4-21.15-2.19h-0.36v28.08c0,4.14,0.24,7.47,0.73,10.03c0.48,2.55,1.09,4.44,1.82,5.65
		c0.97,1.46,1.94,2.55,2.92,3.28c-6.81,3.65-13.13,5.71-18.96,6.2c-5.83,0.49-10.88,0.06-15.13-1.28c-4.26-1.33-7.72-3.4-10.39-6.2
		c-2.68-2.79-4.38-5.89-5.1-9.3c-0.49-2.92-0.43-6.07,0.18-9.48c0.6-3.4,1.82-6.62,3.65-9.66c1.82-3.04,4.31-5.77,7.47-8.2
		c3.16-2.43,6.93-4.38,11.3-5.83c6.07-1.94,12.94-4.13,20.6-6.56c7.66-2.43,14.82-4.74,21.51-6.93c6.68-2.19,12.27-4.01,16.77-5.47
		c4.5-1.46,6.87-2.19,7.11-2.19c1.94-0.24,3.95-0.3,6.02-0.18c2.06,0.13,4.07,0.43,6.02,0.91c8.02,1.95,14.7,6.08,20.05,12.4
		c2.43,2.68,4.5,5.59,6.2,8.75c1.7,3.16,2.79,6.44,3.28,9.84c0.48,2.43,0.67,4.87,0.55,7.29c-0.13,2.43-0.18,4.87-0.18,7.29v76.93
		V604.13z M376.65,622.73c4.13,6.08,9.23,10.33,15.31,12.76v-36.83l-9.12-9.12l9.12-9.12V550.9l-21.15,7.66v45.58
		C370.82,610.69,372.76,616.89,376.65,622.73z M413.12,520.63c0-7.05-1.95-13.37-5.83-18.96c-1.22-1.94-2.55-3.65-4.01-5.1
		s-3.04-2.79-4.74-4.01v49.22l14.58-5.1V520.63z M413.12,542.88l-14.58,5.47v32.45l8.75,8.75l-8.75,9.12v38.65
		c2.43,0.49,4.86,0.79,7.29,0.91c2.43,0.13,4.86-0.06,7.29-0.55V542.88z"/>
	<path d="M611.1,499.12c0.48,1.95,0.73,3.71,0.73,5.29c0,1.58,0,3.34,0,5.29v1.82c0,7.78-2.86,14.53-8.57,20.24
		c-5.71,5.71-12.58,8.57-20.6,8.57s-14.89-2.85-20.6-8.57c-5.71-5.71-8.57-12.45-8.57-20.24c0-5.59,1.58-10.81,4.74-15.68
		c-3.89-3.89-7.9-6.68-12.03-8.39v65.63l9.11,9.12l-9.11,9.12v63.08c6.32,2.68,13.36,3.41,21.15,2.19
		c-7.78,3.16-14.58,6.08-20.42,8.75c-4.87,2.19-9.24,4.14-13.13,5.83c-3.89,1.7-5.47,2.31-4.74,1.82c-1.22,0.49-2.31,0.85-3.28,1.09
		c-0.97,0.24-2.07,0.36-3.28,0.36c-4.14,0.73-8.27,0.48-12.4-0.73c-8.02-1.7-14.83-5.83-20.42-12.4c-2.43-2.67-4.5-5.59-6.2-8.75
		c-1.7-3.16-2.8-6.56-3.28-10.21c0-0.73-0.06-4.07-0.18-10.03c-0.13-5.95-0.18-13.31-0.18-22.06s0-18.17,0-28.26
		c0-10.08,0-19.75,0-28.99c0-9.24,0-17.32,0-24.25c0-6.93,0-11.49,0-13.67c8.51-2.92,15.86-5.41,22.06-7.47
		c6.2-2.06,12.94-4.25,20.24-6.56c7.29-2.31,13.98-4.43,20.05-6.38c6.07-1.94,11.12-3.52,15.13-4.74c4.01-1.21,5.77-1.7,5.29-1.46
		c1.46-0.48,3.65-0.97,6.56-1.46c4.62-0.48,8.63-0.24,12.03,0.73c4.13,0.97,7.9,2.55,11.3,4.74c3.4,2.19,6.44,4.74,9.12,7.66
		c2.43,2.68,4.5,5.65,6.2,8.93C609.52,492.38,610.61,495.72,611.1,499.12z M539.64,485.27c-4.73-0.97-10.07-1.09-16.04-0.36v118.14
		c0,6.81,2.11,13.01,6.34,18.59c2.73,4.14,5.97,7.29,9.7,9.48v-59.8l-9.48-9.12l9.48-9.12V485.27z"/>
	<path d="M632.61,491.46c-1.7-3.4-4.56-6.26-8.57-8.57c-4.01-2.31-7.96-3.58-11.85-3.83c3.16-1.21,7.17-2.67,12.03-4.38
		c4.86-1.7,9.72-3.22,14.58-4.56c4.86-1.33,9.42-2.37,13.67-3.1c4.25-0.73,7.47-0.73,9.66,0c1.94,0.49,3.89,1.16,5.83,2.01
		c1.94,0.85,3.65,2.13,5.1,3.83c3.4,3.41,5.1,7.9,5.1,13.49c0,3.16,0,8.08,0,14.77c0,6.69,0,14.16,0,22.42c0,8.27,0,16.9,0,25.89
		c0,9,0,17.2,0,24.61c0,7.42,0,13.67,0,18.78c0,5.11,0,8.02,0,8.75c0,10.94,1.46,19.14,4.38,24.61c2.92,5.47,6.2,9.42,9.84,11.85
		c4.38,2.68,9.23,4.01,14.58,4.01c-3.16,1.22-6.81,2.43-10.94,3.65c-4.14,1.22-8.15,2.37-12.03,3.46c-3.89,1.09-7.29,2-10.21,2.73
		s-4.62,1.09-5.1,1.09c-1.22,0.25-2.31,0.43-3.28,0.55c-0.97,0.13-1.95,0.06-2.92-0.18c-5.59-1.21-10.15-3.4-13.67-6.56
		c-3.53-3.16-6.38-6.87-8.57-11.12c-2.19-4.25-3.71-8.93-4.56-14.04c-0.85-5.1-1.28-10.08-1.28-14.95v-101c0-2.43,0-4.86,0-7.29
		C634.43,495.97,633.83,493.65,632.61,491.46z M655.58,459.38l-26.62-26.62l26.62-26.62l26.62,26.62L655.58,459.38z"/>
	<path d="M835.34,630.75c1.7,3.41,4.56,6.26,8.57,8.57c4.01,2.31,7.96,3.59,11.85,3.83c-3.41,1.22-7.24,2.5-11.49,3.83
		c-4.26,1.34-8.27,2.62-12.03,3.83c-3.77,1.22-8.45,2.55-14.04,4.01c-3.65,0.97-7.66,1.09-12.03,0.36
		c-4.62-0.73-8.39-2.55-11.3-5.47s-4.62-7.05-5.1-12.4c-1.46,0.49-4.07,1.77-7.84,3.83c-3.77,2.07-7.96,4.19-12.58,6.38
		c-4.62,2.19-9.48,4.14-14.58,5.83c-5.1,1.7-9.73,2.55-13.86,2.55c-2.68,0-5.23-0.37-7.66-1.09c-3.89-0.97-7.47-2.55-10.76-4.74
		c-3.28-2.19-6.26-4.74-8.93-7.66c-2.43-2.67-4.56-5.59-6.38-8.75c-1.82-3.16-2.98-6.44-3.46-9.84c0-0.73-0.06-4.43-0.18-11.12
		c-0.13-6.68-0.18-14.82-0.18-24.43c0-9.6,0-20.05,0-31.36c0-11.3,0.06-22,0.18-32.09c0.12-10.08,0.18-18.9,0.18-26.43
		c0-7.53,0-12.4,0-14.58c1.46-0.73,2.55-1.21,3.28-1.46c0.73-0.24,1.7-0.48,2.92-0.73c2.67-0.97,5.22-1.88,7.66-2.73
		c2.43-0.85,4.98-1.64,7.66-2.37c2.67-0.97,5.22-1.88,7.66-2.73c2.43-0.85,4.98-1.64,7.66-2.37l2.19-0.73l22.61-7.66v-71.1h-3.05
		h-1.02c3.14-0.97,6.77-2.13,10.89-3.46c4.11-1.33,8.17-2.55,12.16-3.65c3.99-1.09,7.45-2.01,10.35-2.73
		c2.91-0.73,4.6-1.09,5.08-1.09c2.42-0.48,4.36-0.6,5.81-0.36c5.57,1.22,10.16,3.41,13.8,6.56c3.63,3.16,6.47,6.87,8.53,11.12
		c2.06,4.26,3.51,8.93,4.36,14.04c0.84,5.1,1.27,10.09,1.27,14.95V615.8v0.73v3.65c0,1.95,0.12,3.77,0.36,5.47
		C834.12,627.35,834.61,629.05,835.34,630.75z M753.54,623.09c2.62,4.38,6.55,7.42,11.79,9.12v-64.17l-9.12-9.12l9.12-9.12v-75.11
		c-2.86-0.73-5.78-1.21-8.76-1.46c-2.98-0.24-6.02-0.12-9.11,0.36v4.38v112.67v13.49C747.47,610.69,749.49,617.02,753.54,623.09z
		 M789.76,432.4c0-6.32-0.54-11.72-1.61-16.23c-1.07-4.5-2.5-8.26-4.29-11.3c-1.79-3.04-3.69-5.41-5.72-7.11
		c-2.03-1.7-4.11-3.04-6.25-4.01l-0.36,67.45c4.13-1.21,7.53-2.24,10.21-3.1c2.67-0.85,3.77-1.15,3.28-0.91l4.74-1.09V432.4z
		 M789.76,632.94V507.14c0-6.56-1.91-12.76-5.72-18.6c-1.67-2.67-3.52-4.92-5.54-6.75c-2.03-1.82-4.23-3.34-6.61-4.56v72.56
		l9.12,9.12l-9.12,9.12v65.63c2.86,0.49,5.78,0.67,8.76,0.55c2.97-0.12,6.01-0.42,9.11-0.91V632.94z"/>
	<path d="M880.92,654.81c-3.89-0.97-7.54-2.55-10.94-4.74c-3.41-2.19-6.44-4.74-9.12-7.66c-2.43-2.67-4.5-5.59-6.2-8.75
		c-1.7-3.16-2.8-6.44-3.28-9.84c0-0.73-0.06-4.07-0.18-10.03c-0.13-5.95-0.18-13.25-0.18-21.88c0-8.63,0-18.05,0-28.26
		s0-19.87,0-28.99s0-17.14,0-24.06c0-6.93,0-11.49,0-13.67c8.26-2.92,15.5-5.34,21.7-7.29c6.2-1.94,12.88-4.07,20.05-6.38
		c7.17-2.31,13.79-4.43,19.87-6.38c6.07-1.94,11.06-3.52,14.95-4.74c3.89-1.21,5.59-1.7,5.1-1.46c0.97-0.48,1.94-0.79,2.92-0.91
		c0.97-0.12,2.06-0.3,3.28-0.55c1.94-0.24,4.01-0.3,6.2-0.18c2.19,0.13,4.25,0.43,6.2,0.91c7.78,1.95,14.34,6.08,19.69,12.4
		c2.43,2.68,4.5,5.59,6.2,8.75c1.7,3.16,2.79,6.44,3.28,9.84c0.48,2.43,0.67,4.68,0.55,6.75c-0.13,2.07-0.18,4.19-0.18,6.38v0.36
		v0.36c0,1.46-0.31,2.73-0.91,3.83c-0.61,1.09-1.16,2.01-1.64,2.73c-0.73,0.97-1.46,1.58-2.19,1.82l-58.7,25.89v87.14
		c6.8,1.95,13.37,2.43,19.69,1.46l43.75-14.58v4.38c-8.27,2.92-15.5,5.41-21.69,7.47c-6.2,2.07-12.89,4.26-20.05,6.56
		c-7.17,2.31-13.74,4.44-19.69,6.38c-5.96,1.95-10.88,3.53-14.77,4.74c-3.89,1.22-5.59,1.7-5.1,1.46c-1.22,0.48-2.31,0.79-3.28,0.91
		c-0.97,0.12-2.07,0.3-3.28,0.55C888.33,656.03,884.32,655.78,880.92,654.81z M911.18,487.82c-5.59-1.46-11.06-1.7-16.41-0.73v64.9
		l16.41-7.29v-14.95l-9.12-9.12l9.12-9.12V487.82z M911.18,551.99l-16.41,6.93v45.21c0,6.32,1.94,12.64,5.83,18.96
		c3.16,4.62,6.68,7.9,10.57,9.84V551.99z M931.23,501.67c-1.7-2.67-3.77-4.98-6.2-6.93c-2.43-1.94-4.99-3.52-7.66-4.74v21.51
		l9.12,9.12l-9.12,9.12v12.4l14.95-6.56c1.46-1.46,2.61-3.22,3.46-5.29c0.85-2.06,1.28-5.29,1.28-9.66
		C937.07,513.59,935.12,507.27,931.23,501.67z"/>
	<path d="M1049.01,628.92c2.92,5.59,6.2,9.61,9.84,12.03c4.13,2.68,8.87,4.01,14.22,4.01c-3.16,1.22-6.81,2.43-10.94,3.65
		c-4.14,1.22-8.15,2.37-12.03,3.46c-3.89,1.09-7.28,2.01-10.17,2.74c-2.89,0.73-4.59,1.09-5.06,1.09c-1.21,0.24-2.23,0.42-3.07,0.55
		c-0.84,0.12-1.87,0.06-3.08-0.18c-5.55-1.22-10.07-3.4-13.56-6.56c-3.5-3.16-6.33-6.93-8.5-11.3c-2.17-4.38-3.67-9.12-4.52-14.22
		c-0.84-5.1-1.26-10.08-1.26-14.95V421.09c0-2.67,0-5.22,0-7.66c0-2.43-0.61-4.74-1.82-6.93c-1.7-3.4-4.56-6.32-8.57-8.75
		c-4.01-2.43-7.96-3.77-11.85-4.01c3.4-0.97,7.23-2.19,11.49-3.65c4.25-1.46,8.31-2.73,12.18-3.83c3.87-1.09,8.45-2.49,13.76-4.19
		c3.61-0.97,7.71-1.09,12.29-0.36c4.33,0.73,8.07,2.68,11.21,5.83c2.89,3.41,4.58,7.9,5.06,13.49v203.09
		C1044.63,615.07,1046.09,623.34,1049.01,628.92z"/>
</g>
</svg>
